# xmcd CD database file
#
# Track frame offsets:
#	183
#	13345
#	25843
#	38670
#	51620
#	64278
#	76778
#	88525
#	101228
#	112855
#	126345
#	138093
#	150085
#	163580
#	175985
#	187903
#	199708
#	212555
#	224593
#	238005
#	251160
#	264005
#	278085
#	291175
#
# Disc length: 4053 seconds
#
# Revision: 0
# Processed by: cddbd v1.5.1PL0 Copyright (c) Steve Scherf et al.
# Submitted via: CDex 1.40Beta8
#
DISCID=510fd318
DTITLE=Memphis Minnie - Memphis Minnie, Complete Recorded Works 1935-1941 In Chronological Order (Vol 5 - 1940 Jun 27 to 1941 Dec 12)
DYEAR=1991
DGENRE=Blues
TTITLE0=Lonesome Shack Blues
TTITLE1=Nothing In Rambling
TTITLE2=Boy Friend Blues
TTITLE3=Finger Print Blues
TTITLE4=It's Hard To Please My Man
TTITLE5=Ma Rainey
TTITLE6=In My Girlish Days
TTITLE7=Me And MY Chauffeur Blues
TTITLE8=Down By The Riverside
TTITLE9=I Got To Make A Change Blues
TTITLE10=Pig Meat On The Line
TTITLE11=My Gage Is Going Up
TTITLE12=This Is Your Last Chance
TTITLE13=Can't Afford To Lose My Man
TTITLE14=I'm Not A Bad Gal
TTITLE15=You Got To Get Out Of Here
TTITLE16=Don't Turn The Card
TTITLE17=Looking The World Over
TTITLE18=It Was You Baby
TTITLE19=You Need A Friend
TTITLE20=I Am Sailin'
TTITLE21=Remember Me Blues
TTITLE22=Black Rat Swing
TTITLE23=Just Had To Holler
EXTD=YEAR: 1991 ID3G: 0
EXTT0=
EXTT1=
EXTT2=
EXTT3=
EXTT4=
EXTT5=
EXTT6=
EXTT7=
EXTT8=
EXTT9=
EXTT10=
EXTT11=
EXTT12=
EXTT13=
EXTT14=
EXTT15=
EXTT16=
EXTT17=
EXTT18=
EXTT19=
EXTT20=
EXTT21=
EXTT22=
EXTT23=
PLAYORDER=
